<?xml version="1.0" encoding="utf-8"?>
<!-- Generator: Adobe Illustrator 20.1.0, SVG Export Plug-In . SVG Version: 6.00 Build 0)  -->
<svg version="1.1" id="Layer_1" xmlns="http://www.w3.org/2000/svg" xmlns:xlink="http://www.w3.org/1999/xlink" x="0px" y="0px"
	 viewBox="0 0 287.3 286.5" style="enable-background:new 0 0 287.3 286.5;" xml:space="preserve">
<style type="text/css">
	.st0{fill:#FFFFFF;}
	.st1{fill:#6BC8C5;}
</style>
<title>Logo_w</title>
<g>
	<g id="top">
		<path class="st0" d="M128,138.7h47.6c-4-11.2-14.7-18.9-27.3-18.9s-23.3,7.7-27.3,18.9H128z M148.4,126.2c6.5,0,12.6,2.8,16.9,7.7
			h-33.8C135.7,129,141.9,126.2,148.4,126.2L148.4,126.2z"/>
	</g>
	<g id="right">
		<path class="st0" d="M176.3,141.5L176.3,141.5l-25.8,0v35.2l4.8-7.4v-22.8h15.8c1.3,9.8-4.3,19.1-13.5,22.7
			c-0.3,0.1-0.5,0.3-0.7,0.6l-4.6,6.4c-0.1,0.2-0.1,0.4,0.1,0.5c0.1,0,0.1,0.1,0.2,0.1c13.9-1.4,24.8-13.2,24.8-27.5
			C177.4,146.6,177,144,176.3,141.5z"/>
	</g>
	<g id="left">
		<path class="st0" d="M120.5,141.5L120.5,141.5l25.8,0v35.2l-4.8-7.4v-22.8h-15.8c-1.3,9.8,4.3,19.1,13.5,22.7
			c0.3,0.1,0.5,0.3,0.7,0.6l4.6,6.4c0.1,0.2,0.1,0.4-0.1,0.5c-0.1,0-0.1,0.1-0.2,0.1c-13.9-1.4-24.8-13.2-24.8-27.5
			C119.4,146.6,119.7,144,120.5,141.5z"/>
	</g>
</g>
<title>Logo_w</title>
<g>
	<g id="top_1_">
		<path class="st1" d="M191.8,191.2h46.9c-3.9-11-14.5-18.6-26.8-18.6s-22.9,7.6-26.8,18.6H191.8z M211.9,178.9
			c6.4,0,12.4,2.7,16.6,7.5h-33.3C199.4,181.7,205.5,178.9,211.9,178.9L211.9,178.9z"/>
	</g>
	<g id="right_1_">
		<path class="st1" d="M239.3,194L239.3,194l-25.4,0v34.6l4.7-7.3v-22.5h15.5c1.3,9.6-4.2,18.8-13.2,22.4c-0.3,0.1-0.5,0.3-0.7,0.6
			l-4.6,6.3c-0.1,0.1-0.1,0.4,0.1,0.5c0.1,0,0.1,0.1,0.2,0.1c13.7-1.4,24.4-13,24.4-27C240.4,199,240,196.5,239.3,194z"/>
	</g>
	<g id="left_1_">
		<path class="st1" d="M184.4,194L184.4,194l25.4,0v34.6l-4.7-7.3v-22.5h-15.5c-1.3,9.6,4.2,18.8,13.2,22.4c0.3,0.1,0.5,0.3,0.7,0.6
			l4.6,6.3c0.1,0.1,0.1,0.4-0.1,0.5c-0.1,0-0.1,0.1-0.2,0.1c-13.7-1.4-24.4-13-24.4-27C183.3,199,183.7,196.5,184.4,194z"/>
	</g>
</g>
</svg>
