<svg xmlns="http://www.w3.org/2000/svg" viewBox="0 0 287.34 286.5"><defs><style>.cls-1{fill:#fff;}</style></defs><title>Asset 4</title><g id="Layer_2" data-name="Layer 2"><g id="Layer_1-2" data-name="Layer 1"><g id="top"><path class="cls-1" d="M42.68,93.78H279.09C259.3,38.09,206.08,0,143.67,0S28,38.09,8.25,93.78H42.68Zm101-61.93a111.57,111.57,0,0,1,83.88,38H59.78A111.57,111.57,0,0,1,143.67,31.86Z"/></g><g id="right"><path class="cls-1" d="M281.63,103.67v-.15h-134V286.45l24.87-38.33V129.4h82a111.53,111.53,0,0,1-69.95,118.25,8.56,8.56,0,0,0-3.8,2.91l-24.12,33.16a1.75,1.75,0,0,0,1.57,2.76c72.4-7.33,129.1-68.58,129.1-142.85A143.1,143.1,0,0,0,281.63,103.67Z"/></g><g id="left"><path class="cls-1" d="M5.7,103.67v-.15h134V286.45L114.8,248.12V129.4h-82a111.53,111.53,0,0,0,69.95,118.25,8.56,8.56,0,0,1,3.8,2.91l24.12,33.16a1.75,1.75,0,0,1-1.57,2.76C56.7,279.16,0,217.91,0,143.63A143.1,143.1,0,0,1,5.7,103.67Z"/></g></g></g></svg>