<svg xmlns="http://www.w3.org/2000/svg" viewBox="0 0 73.43 60.95"><defs><style>.cls-1{fill:#6cc9c5;}.cls-2{fill:none;}</style></defs><title>graphic</title><g id="Layer_2" data-name="Layer 2"><g id="Layer_1-2" data-name="Layer 1"><path class="cls-1" d="M73.42,1.7A1.83,1.83,0,0,0,71.6,0H1.84A1.83,1.83,0,0,0,0,1.7V48.83a1.84,1.84,0,0,0,1.84,1.84H71.6a1.84,1.84,0,0,0,1.84-1.84ZM70.5,41.86H2.94V2.94H70.5Z"/><path class="cls-1" d="M48.47,59.48c-2.94-.73-3.67-2.94-3.67-5.87v-.73H28.64v.73c0,2.94-.73,5.14-3.67,5.87-.71.18-.73,1.47,0,1.47h23.5C49.2,61,49.18,59.66,48.47,59.48Z"/><path class="cls-2" d="M19,19.68l-5.68,7a5.18,5.18,0,0,0,2,1.54,2.26,2.26,0,0,0,2.37-1,2.26,2.26,0,0,0,1.44,2.14,5.18,5.18,0,0,0,2.54-.19l-1-9Z"/><path class="cls-1" d="M21.69,13.61,11.8,25.88,7.9,39.16H20.46l2.9-9.89ZM19.12,29.38a2.26,2.26,0,0,1-1.44-2.14,2.26,2.26,0,0,1-2.37,1,5.18,5.18,0,0,1-2-1.54l5.68-7,1.74.51,1,9A5.18,5.18,0,0,1,19.12,29.38Z"/><path class="cls-1" d="M53.48,24.42S56,21.54,54.86,18.1,51.2,15.74,49.36,12c0,0-2.29,3.85-1.15,7.29S53.48,24.42,53.48,24.42Z"/><path class="cls-1" d="M57.37,31.2l-3.07,1c.48,2,1.11,4.39,1.86,7h4.33C59.39,36.15,58.33,33.43,57.37,31.2Z"/><path class="cls-1" d="M53.53,24.72c-.58.19-.3,2.79.62,6.82l2.95-1C55.43,26.78,54.11,24.53,53.53,24.72Z"/></g></g></svg>