<svg xmlns="http://www.w3.org/2000/svg" viewBox="0 0 276 276"><defs><style>.cls-1{fill:#6cc9c5;}.cls-2{fill:#fff;}.cls-3{fill:none;}</style></defs><title>Graphic design</title><g id="Layer_2" data-name="Layer 2"><g id="Layer_1-2" data-name="Layer 1"><circle class="cls-1" cx="138" cy="138" r="138"/><path class="cls-2" d="M226.65,71.5a4.42,4.42,0,0,0-4.4-4.1H53.76a4.42,4.42,0,0,0-4.4,4.1l0,113.84a4.43,4.43,0,0,0,4.43,4.43H222.24a4.43,4.43,0,0,0,4.43-4.43Zm-7.06,97H56.42v-94H219.58Z"/><path class="cls-2" d="M166.38,211.06c-7.09-1.77-8.87-7.09-8.87-14.19V195.1h-39v1.77c0,7.09-1.77,12.42-8.87,14.19-1.72.43-1.77,3.55,0,3.55h56.75C168.15,214.61,168.1,211.49,166.38,211.06Z"/><path class="cls-3" d="M95.11,114.92l-13.72,17s2.38,3,4.92,3.71,5.41-1.4,5.72-2.46c-.31,1.06.94,4.41,3.48,5.16s6.14-.46,6.14-.46l-2.33-21.74Z"/><path class="cls-2" d="M101.7,100.26,77.83,129.9,68.4,162H98.75l7-23.89Zm-6.19,38.09c-2.54-.74-3.79-4.1-3.48-5.16-.31,1.06-3.18,3.21-5.72,2.46s-4.92-3.71-4.92-3.71l13.72-17,4.2,1.23,2.33,21.74S98,139.1,95.51,138.36Z"/><path class="cls-2" d="M178.47,126.39s6.09-7,3.35-15.28-8.84-5.69-13.29-14.84c0,0-5.53,9.3-2.79,17.62S178.47,126.39,178.47,126.39Z"/><path class="cls-2" d="M187.87,142.75l-7.4,2.44c1.15,4.9,2.68,10.6,4.48,16.8h10.45C192.77,154.7,190.2,148.15,187.87,142.75Z"/><path class="cls-2" d="M178.6,127.1c-1.4.46-.72,6.74,1.49,16.47l7.11-2.35C183.2,132.09,180,126.63,178.6,127.1Z"/></g></g></svg>