<svg xmlns="http://www.w3.org/2000/svg" viewBox="0 0 73.43 60.95"><defs><style>.cls-1{fill:#6cc9c5;}.cls-2{fill:none;stroke:#6cc9c5;stroke-miterlimit:10;}</style></defs><title>ux</title><g id="Layer_2" data-name="Layer 2"><g id="Layer_1-2" data-name="Layer 1"><path class="cls-1" d="M73.42,1.7A1.83,1.83,0,0,0,71.6,0H1.84A1.83,1.83,0,0,0,0,1.7V48.83a1.84,1.84,0,0,0,1.84,1.84H71.6a1.84,1.84,0,0,0,1.84-1.84ZM70.5,41.86H2.94V2.94H70.5Z"/><path class="cls-1" d="M48.47,59.48c-2.94-.73-3.67-2.94-3.67-5.87v-.73H28.64v.73c0,2.94-.73,5.14-3.67,5.87-.71.18-.73,1.47,0,1.47h23.5C49.2,61,49.18,59.66,48.47,59.48Z"/><rect class="cls-2" x="5.3" y="4.8" width="62.83" height="23.32"/><line class="cls-2" x1="68.13" y1="4.8" x2="5.3" y2="28.12"/><line class="cls-2" x1="68.13" y1="28.12" x2="5.3" y2="4.8"/><rect class="cls-2" x="5.3" y="30.47" width="24.83" height="9.5"/><line class="cls-2" x1="5.3" y1="30.47" x2="30.13" y2="39.97"/><line class="cls-2" x1="30.13" y1="30.47" x2="5.3" y2="39.97"/><rect class="cls-1" x="38.47" y="30.33" width="23.36" height="2"/><rect class="cls-1" x="38.47" y="34.05" width="29.67" height="2"/><rect class="cls-1" x="38.47" y="38.03" width="29.67" height="2"/></g></g></svg>