<svg xmlns="http://www.w3.org/2000/svg" viewBox="0 0 73.43 60.95"><defs><style>.cls-1,.cls-2{fill:#6cc9c5;}.cls-2{font-size:2.04px;font-family:SourceCodePro-Regular, Source Code Pro;}</style></defs><title>web</title><g id="Layer_2" data-name="Layer 2"><g id="Layer_1-2" data-name="Layer 1"><path class="cls-1" d="M73.42,1.7A1.83,1.83,0,0,0,71.6,0H1.84A1.83,1.83,0,0,0,0,1.7V48.83a1.84,1.84,0,0,0,1.84,1.84H71.6a1.84,1.84,0,0,0,1.84-1.84ZM70.5,41.86H2.94V2.94H70.5Z"/><path class="cls-1" d="M48.47,59.48c-2.94-.73-3.67-2.94-3.67-5.87v-.73H28.64v.73c0,2.94-.73,5.14-3.67,5.87-.71.18-.73,1.47,0,1.47h23.5C49.2,61,49.18,59.66,48.47,59.48Z"/><text class="cls-2" transform="translate(5.53 6.67)">&lt;div class=&quot;col-md-6&quot;&gt;<tspan x="0" y="2.45" xml:space="preserve">   &lt;div class=&quot;portfolio-item&quot;&gt;</tspan><tspan x="0" y="4.89" xml:space="preserve">      &lt;a href=&quot;#&quot;&gt;</tspan><tspan x="0" y="7.34" xml:space="preserve">         &lt;img src=&quot;img/portfolio-2.jpg&quot;&gt;</tspan><tspan x="0" y="9.79" xml:space="preserve">      &lt;/a&gt;</tspan><tspan x="0" y="12.23" xml:space="preserve">   &lt;/div&gt;</tspan><tspan x="0" y="14.68">&lt;/div&gt;</tspan></text><text class="cls-2" transform="translate(5.53 23.77)">&lt;div class=&quot;col-md-6&quot;&gt;<tspan x="0" y="2.45" xml:space="preserve">   &lt;div class=&quot;portfolio-item&quot;&gt;</tspan><tspan x="0" y="4.89" xml:space="preserve">      &lt;a href=&quot;#&quot;&gt;</tspan><tspan x="0" y="7.34" xml:space="preserve">         &lt;img src=&quot;img/portfolio-2.jpg&quot;&gt;</tspan><tspan x="0" y="9.79" xml:space="preserve">      &lt;/a&gt;</tspan><tspan x="0" y="12.23" xml:space="preserve">   &lt;/div&gt;</tspan><tspan x="0" y="14.68">&lt;/div&gt;</tspan></text></g></g></svg>